<?xml version="1.0" standalone="no"?>
<!DOCTYPE svg PUBLIC "-//W3C//DTD SVG 20010904//EN"
 "http://www.w3.org/TR/2001/REC-SVG-20010904/DTD/svg10.dtd">
<svg version="1.0" xmlns="http://www.w3.org/2000/svg"
 width="188.000000pt" height="188.000000pt" viewBox="0 0 188.000000 188.000000"
 preserveAspectRatio="xMidYMid meet">
<metadata>
Created by potrace 1.16, written by Peter Selinger 2001-2019
</metadata>
<g transform="translate(0.000000,188.000000) scale(0.100000,-0.100000)"
fill="#000000" stroke="none">
<path d="M0 1060 l0 -640 390 0 390 0 0 -60 0 -60 -135 0 -135 0 0 -60 0 -60
430 0 430 0 0 60 0 60 -135 0 -135 0 0 60 0 60 390 0 390 0 0 640 0 640 -940
0 -940 0 0 -640z m1790 35 l0 -505 -850 0 -850 0 0 505 0 505 850 0 850 0 0
-505z"/>
<path fill="rgb(237,28,36)" d="M1514 1275 c-9 -23 3 -45 26 -45 17 0 20 -6 20 -39 l0 -39 -43 16
c-115 41 -232 -64 -198 -178 24 -82 133 -125 206 -82 29 18 35 19 35 6 0 -12
11 -14 53 -12 48 3 52 5 52 28 0 18 -6 26 -22 28 -23 3 -23 5 -23 168 l0 164
-50 0 c-36 0 -52 -4 -56 -15z m15 -181 c25 -21 31 -34 31 -64 0 -51 -35 -80
-97 -80 -87 0 -123 81 -64 141 39 38 87 39 130 3z"/>
<path fill="rgb(237,28,36)" d="M269 1165 c-43 -19 -64 -53 -55 -89 8 -33 47 -52 126 -65 75 -12 94
-26 66 -47 -39 -28 -134 -14 -162 24 -7 9 -18 13 -28 9 -13 -5 -16 -17 -14
-49 3 -38 6 -43 28 -44 14 0 46 -4 72 -8 63 -11 111 -1 148 30 66 56 20 124
-98 144 -73 12 -96 25 -71 41 30 19 96 10 128 -17 26 -21 34 -24 46 -14 18 15
20 66 3 77 -7 4 -22 9 -33 10 -11 1 -42 5 -70 8 -34 3 -62 0 -86 -10z"/>
<path fill="rgb(237,28,36)" d="M645 1166 c-41 -18 -83 -69 -91 -111 -4 -25 0 -47 16 -79 37 -77 130
-104 250 -73 38 10 45 16 45 37 0 28 4 27 -116 14 -51 -5 -72 -3 -97 10 -18 9
-32 21 -32 26 0 6 51 10 125 10 l125 0 0 38 c0 101 -124 172 -225 128z m118
-57 c12 -6 28 -19 35 -30 12 -18 8 -19 -83 -19 -52 0 -95 4 -95 9 0 5 12 19
26 30 29 23 79 27 117 10z"/>
<path fill="rgb(237,28,36)" d="M1066 1165 c-21 -11 -31 -12 -36 -5 -4 6 -25 10 -46 8 -32 -2 -40 -7
-42 -26 -2 -13 3 -25 12 -28 13 -5 16 -22 16 -79 0 -65 -2 -73 -21 -78 -15 -4
-20 -12 -17 -29 3 -20 9 -23 52 -26 27 -2 60 -1 73 3 32 8 31 43 -2 51 -23 6
-25 11 -25 64 0 51 3 61 26 79 29 23 83 28 102 9 7 -7 12 -40 12 -79 0 -59 -3
-68 -20 -74 -28 -9 -26 -43 3 -50 13 -4 43 -5 68 -3 37 3 44 7 47 26 3 17 -2
25 -17 29 -19 5 -21 13 -21 79 0 66 -3 77 -27 104 -34 38 -93 49 -137 25z"/>
</g>
</svg>